<?xml version="1.0"?>
<svg xmlns="http://www.w3.org/2000/svg" id="Capa_1" enable-background="new 0 0 511.251 511.251" height="512px" viewBox="0 0 511.251 511.251" width="512px"><g><g><path d="m240.703 112.245v-112.189c-15.356.877-30.282 3.087-44.685 6.504-18.208 40.772-12.437 27.903-13.61 30.475-10.646 23.225-19.622 51.229-26.311 81.901 27.295-3.877 55.624-6.117 84.606-6.691z" data-original="#000000" class="active-path" data-old_color="#000000" fill="#757575"/><path d="m142.324 240.627h98.379v-98.379c-31.159.643-61.481 3.302-90.463 7.916-4.614 28.98-7.273 59.303-7.916 90.463z" data-original="#000000" class="active-path" data-old_color="#000000" fill="#757575"/><path d="m270.703 112.245c28.983.574 57.312 2.814 84.605 6.691-6.67-30.591-15.616-58.526-26.225-81.715l-15.227-30.904c-13.956-3.235-28.372-5.341-43.153-6.215z" data-original="#000000" class="active-path" data-old_color="#000000" fill="#757575"/><path d="m150.24 361.09c28.981 4.614 59.304 7.273 90.463 7.916v-98.379h-98.379c.643 31.16 3.302 61.482 7.916 90.463z" data-original="#000000" class="active-path" data-old_color="#000000" fill="#757575"/><path d="m240.703 399.009c-28.983-.574-57.312-2.814-84.606-6.691 6.658 30.534 15.584 58.424 26.167 81.586l16.163 31.29c13.728 3.14 27.854 5.17 42.277 6.002v-112.187z" data-original="#000000" class="active-path" data-old_color="#000000" fill="#757575"/><path d="m392.394 156.021c3.877 27.294 6.117 55.623 6.691 84.605h112.167c-.864-14.962-3.019-29.596-6.354-43.79-29.11-13.795-55.403-28.363-112.504-40.815z" data-original="#000000" class="active-path" data-old_color="#000000" fill="#757575"/><path d="m356.089 24.154c9.442 19.184 22.369 56.165 30.957 100.13 42.577 8.316 77.649 20.286 99.924 30.857l5.313 2.518c-25.856-62.431-75.749-112.647-138.729-138.65z" data-original="#000000" class="active-path" data-old_color="#000000" fill="#757575"/><path d="m504.727 315.142c3.435-14.418 5.646-29.295 6.524-44.516h-112.166c-.574 28.982-2.814 57.312-6.691 84.605 52.748-11.501 77.464-24.3 112.333-40.089z" data-original="#000000" class="active-path" data-old_color="#000000" fill="#757575"/><path d="m329.123 473.947c10.592-23.172 19.524-51.076 26.186-81.63-27.294 3.877-55.623 6.117-84.606 6.691v112.175c14.093-.821 27.982-2.707 42.562-6.049z" data-original="#000000" class="active-path" data-old_color="#000000" fill="#757575"/><path d="m369.082 270.627h-98.379v98.379c31.159-.643 61.482-3.302 90.463-7.916 4.614-28.982 7.273-59.304 7.916-90.463z" data-original="#000000" class="active-path" data-old_color="#000000" fill="#757575"/><path d="m6.498 196.555c-3.422 14.334-5.625 29.069-6.498 44.072h112.321c.574-28.983 2.814-57.312 6.691-84.605-55.122 12.019-80.864 25.828-112.514 40.533z" data-original="#000000" class="active-path" data-old_color="#000000" fill="#757575"/><path d="m387.046 386.969c-6.658 34.088-17.947 74.549-33.625 105.382 62.838-25.943 112.854-76.13 138.799-138.613-29.86 13.52-59.339 24.278-105.174 33.231z" data-original="#000000" class="active-path" data-old_color="#000000" fill="#757575"/><path d="m124.36 386.969c-33.708-6.584-74.612-17.922-105.337-33.614 26.1 63.255 76.51 113.175 138.995 138.979-15.602-30.206-27.115-71.871-33.658-105.365z" data-original="#000000" class="active-path" data-old_color="#000000" fill="#757575"/><path d="m361.166 150.164c-28.981-4.614-59.303-7.273-90.463-7.916v98.379h98.379c-.643-31.159-3.302-61.482-7.916-90.463z" data-original="#000000" class="active-path" data-old_color="#000000" fill="#757575"/><path d="m119.012 355.232c-3.877-27.293-6.117-55.622-6.691-84.605h-112.289c.847 14.051 2.877 28.249 6.159 42.49l31.205 15.936c23.168 10.588 51.069 19.518 81.616 26.179z" data-original="#000000" class="active-path" data-old_color="#000000" fill="#757575"/><path d="m124.36 124.284c7.355-37.654 17.675-71.152 30.744-99.681l2.509-5.618c-63.166 26.185-112.656 76.795-138.426 138.595 28.37-13.182 59.867-24.447 105.173-33.296z" data-original="#000000" class="active-path" data-old_color="#000000" fill="#757575"/></g></g> </svg>
